<?xml version="1.0" encoding="UTF-8" standalone="no"?>
<!-- Created with Inkscape (http://www.inkscape.org/) -->

<svg
   xmlns:dc="http://purl.org/dc/elements/1.1/"
   xmlns:cc="http://creativecommons.org/ns#"
   xmlns:rdf="http://www.w3.org/1999/02/22-rdf-syntax-ns#"
   xmlns:svg="http://www.w3.org/2000/svg"
   xmlns="http://www.w3.org/2000/svg"
   xmlns:sodipodi="http://sodipodi.sourceforge.net/DTD/sodipodi-0.dtd"
   xmlns:inkscape="http://www.inkscape.org/namespaces/inkscape"
   width="100"
   height="100"
   viewBox="0 0 26.458333 26.458333"
   version="1.1"
   id="svg8"
   inkscape:version="0.92.4 (5da689c313, 2019-01-14)"
   sodipodi:docname="ARC19.svg">
  <defs
     id="defs2" />
  <sodipodi:namedview
     id="base"
     pagecolor="#ffffff"
     bordercolor="#666666"
     borderopacity="1.0"
     inkscape:pageopacity="0.0"
     inkscape:pageshadow="2"
     inkscape:zoom="5.6"
     inkscape:cx="43.902552"
     inkscape:cy="51.402934"
     inkscape:document-units="mm"
     inkscape:current-layer="layer1"
     showgrid="false"
     inkscape:window-width="1920"
     inkscape:window-height="986"
     inkscape:window-x="-11"
     inkscape:window-y="-11"
     inkscape:window-maximized="1"
     units="px" />
  <metadata
     id="metadata5">
    <rdf:RDF>
      <cc:Work
         rdf:about="">
        <dc:format>image/svg+xml</dc:format>
        <dc:type
           rdf:resource="http://purl.org/dc/dcmitype/StillImage" />
        <dc:title></dc:title>
      </cc:Work>
    </rdf:RDF>
  </metadata>
  <g
     inkscape:label="Layer 1"
     inkscape:groupmode="layer"
     id="layer1"
     transform="translate(0,-270.54167)">
    <flowRoot
       xml:space="preserve"
       id="flowRoot879"
       style="font-style:normal;font-weight:normal;font-size:40px;line-height:1.25;font-family:sans-serif;letter-spacing:0px;word-spacing:0px;fill:#000000;fill-opacity:1;stroke:none"
       transform="scale(0.26458333)"><flowRegion
         id="flowRegion881"><rect
           id="rect883"
           width="152.85715"
           height="85"
           x="448.92856"
           y="479.66254" /></flowRegion><flowPara
         id="flowPara885"></flowPara></flowRoot>    <text
       xml:space="preserve"
       style="font-style:normal;font-weight:normal;font-size:10.58333302px;line-height:1.25;font-family:sans-serif;letter-spacing:0px;word-spacing:0px;fill:#000000;fill-opacity:1;stroke:none;stroke-width:0.26458332"
       x="143.34747"
       y="169.62202"
       id="text889"><tspan
         sodipodi:role="line"
         id="tspan887"
         x="143.34747"
         y="179.27753"
         style="stroke-width:0.26458332"></tspan></text>
    <path
       style="fill:#ff9c86;fill-opacity:1;stroke:none;stroke-width:0.05257912px;stroke-linecap:butt;stroke-linejoin:miter;stroke-opacity:1"
       d="m 12.309721,280.354 c 0,0 -0.944419,-0.70672 -1.341103,-1.13861 -0.207698,-0.22613 -0.398482,-0.47493 -0.534447,-0.75022 -0.139957,-0.28338 -0.246444,-0.59185 -0.278844,-0.90624 -0.02928,-0.28411 0.01147,-0.57578 0.07967,-0.85313 0.05711,-0.23226 0.153232,-0.45641 0.272204,-0.66391 0.178666,-0.3116 0.383564,-0.62 0.653954,-0.85645 0.272342,-0.23815 0.603325,-0.41256 0.942754,-0.53776 0.382576,-0.14112 0.793909,-0.22985 1.20168,-0.22905 0.422733,7.9e-4 0.853111,0.0834 1.244834,0.24233 0.391894,0.15899 0.731807,0.42985 1.062259,0.69378 0.304496,0.24321 0.839848,0.81329 0.839848,0.81329 l 4.325385,4.30215 0.710385,0.86973 0.338595,0.63735 0.1527,0.46474 0.139421,0.89628 -0.07967,0.96267 -0.22573,0.67055 -0.212452,0.47802 -0.783416,1.08218 c 0,0 0.237443,0.45231 0.436242,0.98414 0.14935,0.39955 0.260531,0.85625 0.323439,1.13181 0.0774,0.33904 0.161411,0.77501 0.178632,1.1683 0.02206,0.50382 -0.03539,0.93158 -0.03539,0.93158 l 0.60416,-0.51785 c 0,0 1.347053,-1.20917 1.902106,-1.91538 0.399404,-0.50818 0.732563,-1.0782 0.977256,-1.68309 0.244694,-0.60489 0.422115,-1.20485 0.528164,-1.88212 0.151954,-0.97042 0.146246,-1.74887 0.0033,-2.59755 -0.573445,-2.81025 -1.624236,-3.43105 -3.593965,-5.49482 -1.077026,-1.14627 -2.818738,-2.86024 -3.985212,-3.9679 -0.304761,-0.28939 -0.733326,-0.70557 -1.457899,-1.13546 -0.753374,-0.44698 -1.083131,-0.52533 -1.663137,-0.69283 -0.793175,-0.22907 -1.865393,-0.18883 -1.865393,-0.18883 0,0 -0.732569,0.0433 -1.009625,0.086 -0.399208,0.0615 -0.671466,0.16029 -0.999647,0.26612 -0.427077,0.13771 -0.863457,0.26535 -1.2581429,0.47884 -0.391219,0.21162 -0.74774,0.48802 -1.079751,0.78399 -0.40592,0.36187 -0.785028,0.76083 -1.103223,1.20181 -0.261917,0.36299 -0.483631,0.75912 -0.652545,1.17364 -0.26015,0.63842 -0.459659,1.31105 -0.544568,1.99519 -0.0692,0.55761 -0.04515,1.1289 0.03286,1.68535 0.0636,0.45371 0.181326,0.90344 0.352094,1.32856 0.17727,0.44131 0.417829,0.85882 0.690099,1.24876 0.329608,0.47205 1.131391,1.30509 1.131391,1.30509 l 0.854411,0.78399 z"
       id="path826"
       inkscape:connector-curvature="0"
       sodipodi:nodetypes="cssssssssssccccccccccsssccszsccssscssssssssssccc" />
    <path
       style="fill:#ff9c86;fill-opacity:1;stroke:none;stroke-width:0.05257912px;stroke-linecap:butt;stroke-linejoin:miter;stroke-opacity:1"
       d="m 14.240429,287.2529 c 0,0 0.944419,0.70672 1.341102,1.13861 0.207699,0.22613 0.398482,0.47493 0.534447,0.75022 0.139958,0.28338 0.246444,0.59185 0.278844,0.90624 0.02928,0.28411 -0.01147,0.57578 -0.07967,0.85313 -0.05711,0.23226 -0.153232,0.45641 -0.272204,0.66391 -0.178665,0.3116 -0.383564,0.62 -0.653954,0.85644 -0.272341,0.23816 -0.603325,0.41257 -0.942754,0.53777 -0.382575,0.14112 -0.793909,0.22985 -1.201679,0.22905 -0.422734,-7.9e-4 -0.853111,-0.0834 -1.244835,-0.24233 -0.391894,-0.15899 -0.731808,-0.42985 -1.062263,-0.69378 -0.304497,-0.24321 -0.83985,-0.8133 -0.83985,-0.8133 l -4.3253839,-4.30214 -0.710385,-0.86973 -0.338595,-0.63735 -0.152699,-0.46474 -0.139423,-0.89628 0.07967,-0.96267 0.225729,-0.67055 0.212452,-0.47802 0.783417,-1.08218 c 0,0 -0.237444,-0.45231 -0.436242,-0.98414 -0.149351,-0.39955 -0.260531,-0.85625 -0.323439,-1.13181 -0.0774,-0.33904 -0.161412,-0.77501 -0.178631,-1.1683 -0.02206,-0.50382 0.03539,-0.93159 0.03539,-0.93159 l -0.604161,0.51786 c 0,0 -1.347052,1.20917 -1.902105,1.91538 -0.399404,0.50818 -0.732563,1.0782 -0.977256,1.68309 -0.244693,0.60489 -0.42211402,1.20485 -0.52816402,1.88212 -0.151954,0.97042 -0.146247,1.74887 -0.0033,2.59755 0.57344402,2.81025 1.62423402,3.43105 3.59396302,5.49482 1.077026,1.14627 2.818739,2.86024 3.985212,3.96789 0.304762,0.2894 0.733326,0.70558 1.457901,1.13547 0.7533729,0.44698 1.0831299,0.52533 1.6631409,0.69283 0.793174,0.22907 1.865393,0.18883 1.865393,0.18883 0,0 0.732569,-0.0433 1.009624,-0.086 0.39921,-0.0615 0.671468,-0.16029 0.999649,-0.26612 0.427076,-0.13771 0.863457,-0.26535 1.258143,-0.47884 0.391218,-0.21162 0.74774,-0.48802 1.07975,-0.78399 0.40592,-0.36187 0.785028,-0.76083 1.103224,-1.20181 0.261916,-0.36299 0.483631,-0.75912 0.652544,-1.17364 0.26015,-0.63842 0.459659,-1.31105 0.544568,-1.99519 0.0692,-0.55761 0.04515,-1.1289 -0.03286,-1.68535 -0.0636,-0.45371 -0.181326,-0.90344 -0.352093,-1.32856 -0.17727,-0.44131 -0.41783,-0.85882 -0.6901,-1.24876 -0.329608,-0.47205 -1.13139,-1.30509 -1.13139,-1.30509 l -0.854412,-0.78399 z"
       id="path826-6"
       inkscape:connector-curvature="0"
       sodipodi:nodetypes="cssssssssssccccccccccsssccszsccssscssssssssssccc" />
    <g
       id="g2099"
       transform="matrix(0.01933944,-1.411888,-1.411888,-0.01933944,418.65642,312.81219)"
       style="stroke-width:1.41641009;stroke-miterlimit:4;stroke-dasharray:none">
      <path
         inkscape:connector-curvature="0"
         id="path1456"
         d="m 13.638802,290.37327 6.081432,-6.08143"
         style="fill:#555e83;fill-opacity:1;stroke:#555e83;stroke-width:1.41641009;stroke-linecap:round;stroke-linejoin:miter;stroke-miterlimit:4;stroke-dasharray:none;stroke-opacity:1" />
      <path
         inkscape:connector-curvature="0"
         id="path1458"
         d="m 17.489491,284.29184 h 2.230743"
         style="fill:none;stroke:#555e83;stroke-width:1.41641009;stroke-linecap:round;stroke-linejoin:miter;stroke-miterlimit:4;stroke-dasharray:none;stroke-opacity:1" />
      <path
         inkscape:connector-curvature="0"
         id="path1458-5"
         d="m 19.720234,284.29184 v 2.23074"
         style="fill:none;stroke:#555e83;stroke-width:1.41641009;stroke-linecap:round;stroke-linejoin:miter;stroke-miterlimit:4;stroke-dasharray:none;stroke-opacity:1" />
    </g>
  </g>
</svg>
