<?xml version="1.0" encoding="UTF-8" standalone="no"?>
<!-- Created with Inkscape (http://www.inkscape.org/) -->

<svg
   xmlns:dc="http://purl.org/dc/elements/1.1/"
   xmlns:cc="http://creativecommons.org/ns#"
   xmlns:rdf="http://www.w3.org/1999/02/22-rdf-syntax-ns#"
   xmlns:svg="http://www.w3.org/2000/svg"
   xmlns="http://www.w3.org/2000/svg"
   xmlns:sodipodi="http://sodipodi.sourceforge.net/DTD/sodipodi-0.dtd"
   xmlns:inkscape="http://www.inkscape.org/namespaces/inkscape"
   width="100"
   height="100"
   viewBox="0 0 26.458333 26.458333"
   version="1.1"
   id="svg8"
   inkscape:version="0.92.4 (5da689c313, 2019-01-14)"
   sodipodi:docname="collection logo.svg">
  <defs
     id="defs2" />
  <sodipodi:namedview
     id="base"
     pagecolor="#ffffff"
     bordercolor="#666666"
     borderopacity="1.0"
     inkscape:pageopacity="0.0"
     inkscape:pageshadow="2"
     inkscape:zoom="5.6"
     inkscape:cx="58.484784"
     inkscape:cy="52.81786"
     inkscape:document-units="px"
     inkscape:current-layer="layer1"
     showgrid="false"
     inkscape:window-width="1920"
     inkscape:window-height="986"
     inkscape:window-x="-11"
     inkscape:window-y="-11"
     inkscape:window-maximized="1"
     showborder="true"
     units="px" />
  <metadata
     id="metadata5">
    <rdf:RDF>
      <cc:Work
         rdf:about="">
        <dc:format>image/svg+xml</dc:format>
        <dc:type
           rdf:resource="http://purl.org/dc/dcmitype/StillImage" />
        <dc:title></dc:title>
      </cc:Work>
    </rdf:RDF>
  </metadata>
  <g
     inkscape:label="Layer 1"
     inkscape:groupmode="layer"
     id="layer1"
     transform="translate(0,-270.54167)">
    <g
       aria-label="C"
       style="font-style:normal;font-weight:normal;font-size:17.89843369px;line-height:1.25;font-family:sans-serif;letter-spacing:0px;word-spacing:0px;fill:#000000;fill-opacity:1;stroke:none;stroke-width:0.44746083"
       id="text817">
      <path
         style="font-style:normal;font-variant:normal;font-weight:normal;font-stretch:normal;font-family:'Arial Rounded MT Bold';-inkscape-font-specification:'Arial Rounded MT Bold, ';stroke-width:0.44746083"
         d="m 18.729568,286.11512 c -0.07414,1.75769 -1.421717,3.28604 -3.028431,3.88849 -1.422332,0.52491 -3.018598,0.47172 -4.465118,0.0749 -1.9821244,-0.5676 -3.3010678,-2.45811 -3.7305242,-4.39961 -0.4144407,-2.05892 -0.2384907,-4.37292 1.0093746,-6.1279 1.1493424,-1.65277 3.2041326,-2.52554 5.1897856,-2.41457 1.945408,0.0482 3.978716,1.09358 4.785329,2.93009 0.300514,0.63204 0.327702,1.55085 -0.364395,1.93904 -0.620008,0.35773 -1.41174,-8.5e-4 -1.658997,-0.6485 -0.480319,-0.98757 -1.277612,-1.97031 -2.436571,-2.11748 -1.225036,-0.22445 -2.57608,0.2583 -3.262792,1.32454 -0.8830379,1.33991 -0.9319524,3.04298 -0.737393,4.58784 0.166766,1.25357 0.86012,2.56223 2.129563,2.97436 1.340411,0.46454 3.051419,0.11716 3.827751,-1.1518 0.44385,-0.567 0.441242,-1.42323 1.053789,-1.86045 0.72286,-0.4005 1.727729,0.1491 1.688629,1.00108 z"
         id="path830"
         inkscape:connector-curvature="0" />
    </g>
    <path
       style="color:#000000;font-style:normal;font-variant:normal;font-weight:normal;font-stretch:normal;font-size:medium;line-height:normal;font-family:sans-serif;font-variant-ligatures:normal;font-variant-position:normal;font-variant-caps:normal;font-variant-numeric:normal;font-variant-alternates:normal;font-feature-settings:normal;text-indent:0;text-align:start;text-decoration:none;text-decoration-line:none;text-decoration-style:solid;text-decoration-color:#000000;letter-spacing:normal;word-spacing:normal;text-transform:none;writing-mode:lr-tb;direction:ltr;text-orientation:mixed;dominant-baseline:auto;baseline-shift:baseline;text-anchor:start;white-space:normal;shape-padding:0;clip-rule:nonzero;display:inline;overflow:visible;visibility:visible;opacity:1;isolation:auto;mix-blend-mode:normal;color-interpolation:sRGB;color-interpolation-filters:linearRGB;solid-color:#000000;solid-opacity:1;vector-effect:none;fill:#c2c2c2;fill-opacity:1;fill-rule:nonzero;stroke:none;stroke-width:2.18273425;stroke-linecap:round;stroke-linejoin:round;stroke-miterlimit:4;stroke-dasharray:none;stroke-dashoffset:0;stroke-opacity:1;paint-order:stroke markers fill;color-rendering:auto;image-rendering:auto;shape-rendering:auto;text-rendering:auto;enable-background:accumulate"
       d="m 13.300781,273.45508 c -4.0284218,-0.0541 -7.8781263,2.58178 -9.3860643,6.30001 -1.6029176,3.71077 -0.7465528,8.31293 2.0987409,11.18777 2.6322262,2.80236 6.9264744,3.85919 10.5524154,2.56877 3.941287,-1.30698 6.813403,-5.21153 6.914927,-9.35898 0.210408,-4.07585 -2.261849,-8.1214 -5.990087,-9.7844 -1.309165,-0.60214 -2.749066,-0.91492 -4.189932,-0.91317 z m 0,2.18359 c 3.582876,-0.067 6.937277,2.60696 7.75227,6.08189 0.922654,3.42223 -0.662037,7.33947 -3.765766,9.0814 -3.079792,1.85935 -7.3677073,1.22929 -9.7823258,-1.43798 -2.6783569,-2.75171 -2.9448803,-7.42302 -0.6196455,-10.47337 1.4691736,-2.02014 3.9136953,-3.27249 6.4154673,-3.25194 z"
       id="path819"
       inkscape:connector-curvature="0" />
  </g>
</svg>
