<?xml version="1.0" encoding="UTF-8" standalone="no"?>
<!-- Generator: Adobe Illustrator 26.0.2, SVG Export Plug-In . SVG Version: 6.00 Build 0)  -->

<svg
   xmlns:dc="http://purl.org/dc/elements/1.1/"
   xmlns:cc="http://creativecommons.org/ns#"
   xmlns:rdf="http://www.w3.org/1999/02/22-rdf-syntax-ns#"
   xmlns:svg="http://www.w3.org/2000/svg"
   xmlns="http://www.w3.org/2000/svg"
   xmlns:sodipodi="http://sodipodi.sourceforge.net/DTD/sodipodi-0.dtd"
   xmlns:inkscape="http://www.inkscape.org/namespaces/inkscape"
   version="1.1"
   id="Layer_1"
   x="0px"
   y="0px"
   viewBox="0 0 600 100"
   xml:space="preserve"
   sodipodi:docname="kinn_logo.svg"
   inkscape:version="0.92.4 (5da689c313, 2019-01-14)"
   width="600"
   height="100"><metadata
   id="metadata4582"><rdf:RDF><cc:Work
       rdf:about=""><dc:format>image/svg+xml</dc:format><dc:type
         rdf:resource="http://purl.org/dc/dcmitype/StillImage" /><dc:title></dc:title></cc:Work></rdf:RDF></metadata><defs
   id="defs4580"><inkscape:path-effect
     effect="bspline"
     id="path-effect4976"
     is_visible="true"
     weight="33.333333"
     steps="2"
     helper_size="0"
     apply_no_weight="true"
     apply_with_weight="true"
     only_selected="false" /><inkscape:path-effect
     effect="bspline"
     id="path-effect4942"
     is_visible="true"
     weight="33.333333"
     steps="2"
     helper_size="0"
     apply_no_weight="true"
     apply_with_weight="true"
     only_selected="false" /></defs><sodipodi:namedview
   pagecolor="#ffffff"
   bordercolor="#666666"
   borderopacity="1"
   objecttolerance="10"
   gridtolerance="10"
   guidetolerance="10"
   inkscape:pageopacity="0"
   inkscape:pageshadow="2"
   inkscape:window-width="1920"
   inkscape:window-height="986"
   id="namedview4578"
   showgrid="false"
   showborder="true"
   inkscape:zoom="1.1596551"
   inkscape:cx="149.24409"
   inkscape:cy="202.32727"
   inkscape:window-x="-11"
   inkscape:window-y="-11"
   inkscape:window-maximized="1"
   inkscape:current-layer="Layer_1" />
<style
   type="text/css"
   id="style4551">
	.st0{fill:#E0F5F2;}
	.st1{fill:none;}
	.st2{fill:#00AECE;}
	.st3{fill:#E69CDB;}
	.st4{fill:#7661EB;}
</style>
<g
   id="g4557"
   transform="matrix(0.68763487,0,0,0.68763487,326.37996,11.683899)">
	<g
   id="g4555">
		<path
   class="st0"
   d="m 62.21,93.72 h 15 V 35.96 h -15 z M 69.94,6.26 c -5.91,0 -10.7,4.79 -10.7,10.7 0,5.91 4.79,10.7 10.7,10.7 5.91,0 10.7,-4.79 10.7,-10.7 -0.01,-5.91 -4.8,-10.7 -10.7,-10.7 z"
   id="path4553"
   inkscape:connector-curvature="0"
   style="fill:#e0f5f2" />
	</g>
</g>
<path
   class="st1"
   d="M 353.01893,35.489819"
   id="path4559"
   inkscape:connector-curvature="0"
   style="fill:none;stroke-width:0.68763483" />
<path
   class="st1"
   d="M 365.19694,35.565459"
   id="path4561"
   inkscape:connector-curvature="0"
   style="fill:none;stroke-width:0.68763483" />
<polygon
   class="st2"
   points="20.05,93.72 20.05,66.37 38.56,93.72 58.47,93.72 35.71,62.81 55.73,35.96 38.01,35.96 20.05,61.56 20.05,36.12 4.08,36.12 4.08,93.72 "
   id="polygon4563"
   transform="matrix(0.68763487,0,0,0.68763487,326.37996,11.683899)"
   style="fill:#00aece" />
<g
   id="g4569"
   transform="matrix(0.68763487,0,0,0.68763487,326.37996,11.683899)">
	<g
   id="g4567">
		<path
   class="st3"
   d="m 108.75,27.55 c 5.91,0 10.7,-4.79 10.7,-10.7 0,-5.91 -4.79,-10.7 -10.7,-10.7 -5.91,0 -10.7,4.79 -10.7,10.7 0.01,5.91 4.8,10.7 10.7,10.7 z M 80.95,93.72 H 95.91 V 62.32 H 80.95 Z M 80.94,62.31 c 4.99,0 9.98,0 14.96,0 0,-17.12 25.68,-17.12 25.68,0 0,0 0,0 0.01,0 v 31.41 h 14.96 V 62.31 c 0,0 0,0 0,0 0,-37.08 -55.61,-37.08 -55.61,0 z"
   id="path4565"
   inkscape:connector-curvature="0"
   style="fill:#e69cdb" />
	</g>
</g>
<g
   id="g4575"
   transform="matrix(0.68763487,0,0,0.68763487,326.37996,11.683899)">
	<g
   id="g4573">
		<path
   class="st4"
   d="m 168.12,27.67 c 5.91,0 10.7,-4.79 10.7,-10.7 0,-5.91 -4.79,-10.7 -10.7,-10.7 -5.91,0 -10.7,4.79 -10.7,10.7 0,5.91 4.79,10.7 10.7,10.7 z m -27.8,66.05 h 14.96 v -31.4 h -14.96 z m -0.01,-31.41 c 4.99,0 9.98,0 14.96,0 0,-17.12 25.68,-17.12 25.68,0 0,0 0,0 0.01,0 v 31.41 h 14.96 V 62.31 c 0,0 0,0 0,0 0,-37.08 -55.61,-37.08 -55.61,0 z"
   id="path4571"
   inkscape:connector-curvature="0"
   style="fill:#7661eb" />
	</g>
</g>
<text
   xml:space="preserve"
   style="font-style:normal;font-variant:normal;font-weight:normal;font-stretch:normal;font-size:31.14509392px;line-height:1.25;font-family:'Segoe UI';-inkscape-font-specification:'Segoe UI';letter-spacing:0px;word-spacing:0px;fill:#a5a5a5;fill-opacity:1;stroke:none;stroke-width:12.06565952;stroke-miterlimit:4;stroke-dasharray:none"
   x="475.32288"
   y="74.132446"
   id="text4586"
   transform="scale(0.9870311,1.0131393)"><tspan
     sodipodi:role="line"
     id="tspan4584"
     x="475.32288"
     y="74.132446"
     style="font-style:normal;font-variant:normal;font-weight:bold;font-stretch:normal;font-size:58.13751221px;line-height:1.25;font-family:'Berlin Sans FB Demi';-inkscape-font-specification:'Berlin Sans FB Demi Bold';letter-spacing:-1.66407621px;fill:#b8b8b8;fill-opacity:1;stroke-width:12.06565952"
     dx="0">DAO</tspan></text>
<text
   xml:space="preserve"
   style="font-style:normal;font-variant:normal;font-weight:normal;font-stretch:normal;font-size:40px;line-height:1.25;font-family:'Segoe UI';-inkscape-font-specification:'Segoe UI';letter-spacing:0px;word-spacing:0px;fill:#000000;fill-opacity:1;stroke:none"
   x="-398.39432"
   y="55.159081"
   id="text4954"><tspan
     sodipodi:role="line"
     id="tspan4952"
     x="-398.39432"
     y="91.189255"></tspan></text>
<text
   xml:space="preserve"
   style="font-style:normal;font-variant:normal;font-weight:normal;font-stretch:normal;font-size:31.14509392px;line-height:1.25;font-family:'Segoe UI';-inkscape-font-specification:'Segoe UI';letter-spacing:0px;word-spacing:0px;fill:#a5a5a5;fill-opacity:1;stroke:none;stroke-width:12.06565952;stroke-miterlimit:4;stroke-dasharray:none"
   x="14.118855"
   y="74.35955"
   id="text4586-2"
   transform="scale(0.9870311,1.0131393)"><tspan
     sodipodi:role="line"
     id="tspan4584-5"
     x="14.118855"
     y="74.35955"
     style="font-style:normal;font-variant:normal;font-weight:600;font-stretch:normal;font-size:58.13751221px;line-height:1.25;font-family:'Segoe UI';-inkscape-font-specification:'Segoe UI Semi-Bold';letter-spacing:-1.66407621px;fill:#a5a5a5;fill-opacity:1;stroke-width:12.06565952"><tspan
   style="fill:#a5a5a5;fill-opacity:1;stroke-width:12.06565952"
   id="tspan4980">Welcome</tspan> to </tspan></text>
</svg>