<?xml version="1.0" standalone="no"?>
<!DOCTYPE svg PUBLIC "-//W3C//DTD SVG 20010904//EN"
 "http://www.w3.org/TR/2001/REC-SVG-20010904/DTD/svg10.dtd">
<svg version="1.0" xmlns="http://www.w3.org/2000/svg"
 width="377.000000pt" height="377.000000pt" viewBox="0 0 377.000000 377.000000"
 preserveAspectRatio="xMidYMid meet">
<metadata>
Created by potrace 1.14, written by Peter Selinger 2001-2017
</metadata>
<g transform="translate(0.000000,377.000000) scale(0.100000,-0.100000)"
fill="#000000" stroke="none">
<path d="M1885 3703 c-163 -17 -297 -108 -369 -250 -14 -29 -24 -53 -21 -53 3
0 1 -9 -6 -21 -16 -30 -20 -145 -8 -209 26 -131 122 -256 241 -314 65 -31 93
-37 184 -41 126 -6 232 35 325 125 216 211 161 577 -109 714 -71 36 -169 56
-237 49z"/>
<path d="M1720 2513 c-120 -18 -280 -71 -390 -129 -327 -174 -533 -495 -566
-884 -5 -57 -9 -1363 -5 -1427 1 -10 71 -13 314 -13 l312 0 0 677 c-1 714 2
762 45 860 56 128 145 213 280 266 308 121 643 -41 725 -350 14 -50 16 -158
16 -755 l1 -698 313 0 312 0 -2 743 c-1 408 -6 758 -9 777 -66 330 -192 545
-421 716 -149 111 -335 188 -530 219 -79 13 -301 12 -395 -2z"/>
</g>
</svg>
